<?xml version="1.0" encoding="utf-8"?>
<!-- Generator: Adobe Illustrator 23.1.1, SVG Export Plug-In . SVG Version: 6.00 Build 0)  -->
<svg version="1.1" id="LOGO" xmlns="http://www.w3.org/2000/svg" xmlns:xlink="http://www.w3.org/1999/xlink" x="0px" y="0px"
	 viewBox="0 0 402.2 102" style="enable-background:new 0 0 402.2 102;" xml:space="preserve">
<style type="text/css">
	.st0{fill:#FFFFFF;}
	.st1{fill:#C7081C;}
	.st2{fill:#FF081C;}
	.st3{fill:#713400;}
	.st4{fill:url(#SVGID_1_);}
	.st5{fill:url(#SVGID_2_);}
	.st6{fill:url(#SVGID_3_);}
	.st7{fill:url(#SVGID_4_);}
</style>
<g>
	<g>
		<g>
			<path class="st0" d="M68.4,23.7c-0.7,0-1.4,0.1-2,0.3c-1.1-4.8-5.4-8.3-10.5-8.3c-0.2,0-0.3,0-0.5,0c-3.4-5.6-9.6-9.4-16.6-9.4
				c-6.4,0-12.1,3.1-15.7,7.9c-0.4,0.5-0.7,1-1,1.5c-0.2,0-0.3,0-0.5,0c-5.1,0-9.4,3.6-10.5,8.3c-0.6-0.2-1.3-0.3-2-0.3
				c-0.2,0-0.5,0-0.7,0c-4.1,0.4-3.7,6.7,0.5,6.7h2.7h4.2h3.9h11.8h14.3h11.8h3.9h4.2h2.7c4.2,0,4.7-6.3,0.5-6.7
				C68.9,23.7,68.7,23.7,68.4,23.7z"/>
			<path class="st0" d="M38.8,52.7c-6.9,0-12.5,5.6-12.5,12.5c0,6.9,5.6,12.5,12.5,12.5s12.5-5.6,12.5-12.5
				C51.3,58.3,45.7,52.7,38.8,52.7z M44.2,66.5l-8,4.6c-1,0.6-2.2-0.1-2.2-1.3v-9.2c0-1.1,1.2-1.9,2.2-1.3l8,4.6
				C45.2,64.5,45.2,65.9,44.2,66.5z"/>
			<g>
				<path class="st1" d="M25,75.8L9.9,60.7L7.4,45l14.9,14.9c-0.5,1.7-0.9,3.5-0.9,5.4C21.4,69.2,22.7,72.8,25,75.8z"/>
				<path class="st2" d="M65.1,77.1l-1.8,11.4L51.7,76.9c2.2-2.4,3.7-5.5,4.3-8.9L65.1,77.1z"/>
				<path class="st1" d="M57.9,95.6c-0.4,0.1-0.9,0.1-1.3,0.1H44.9L28.3,79.1c2.9,2.2,6.6,3.6,10.6,3.6c1.9,0,3.7-0.3,5.4-0.9
					L57.9,95.6z"/>
				<path class="st2" d="M32.4,95.7H21c-3.2,0-5.9-2.3-6.4-5.5l-2.4-14.7L32.4,95.7z"/>
				<polygon class="st1" points="35.2,34.8 66.8,66.4 68.7,55 48.4,34.8 				"/>
				<path class="st2" d="M14.9,34.8h-1.6H9.5l2.7,2.6l14.9,14.9c2.4-2.2,5.5-3.7,8.9-4.3L22.8,34.8H14.9z"/>
				<path class="st2" d="M71.9,34.8h-7.6h-2.8h-0.6l9.6,9.6l0.3-2c0,0,0,0,0,0L71.9,34.8z"/>
			</g>
		</g>
		<g>
			<path class="st2" d="M107.7,73.2H87.9L84,82.4h-7.6l17.8-39.6h7.2l17.9,39.6h-7.7L107.7,73.2z M105.3,67.4l-7.5-17.3l-7.4,17.3
				H105.3z"/>
			<path class="st2" d="M150.1,55.2c2.3,2.2,3.5,5.5,3.5,9.9v17.3h-7.1V66c0-2.6-0.6-4.6-1.9-6c-1.2-1.3-3-2-5.3-2
				c-2.6,0-4.7,0.8-6.2,2.4c-1.5,1.6-2.3,3.8-2.3,6.8v15.3h-7.1V52.2h6.7v3.9c1.2-1.4,2.6-2.5,4.4-3.2c1.8-0.7,3.8-1.1,6-1.1
				C144.7,51.8,147.8,52.9,150.1,55.2z"/>
			<path class="st2" d="M190.3,52.2l-14.2,32.7c-1.3,3.3-2.9,5.6-4.8,6.9c-1.9,1.3-4.2,2-6.9,2c-1.5,0-3-0.2-4.5-0.7
				c-1.5-0.5-2.7-1.2-3.6-2l2.8-5.2c0.7,0.6,1.5,1.2,2.4,1.5c0.9,0.4,1.9,0.6,2.8,0.6c1.2,0,2.3-0.3,3.1-1c0.8-0.6,1.6-1.7,2.2-3.2
				l0.5-1.2L157,52.2h7.4l9.5,22.4l9.6-22.4H190.3z"/>
			<path class="st0" d="M198.5,81.7c-2.9-0.9-5.1-2-6.8-3.5l2.5-5.7c1.6,1.3,3.6,2.3,6,3.1c2.4,0.8,4.7,1.2,7.1,1.2
				c2.9,0,5.1-0.5,6.6-1.4c1.5-0.9,2.2-2.2,2.2-3.7c0-1.1-0.4-2.1-1.2-2.8c-0.8-0.7-1.8-1.3-3.1-1.7c-1.2-0.4-2.9-0.9-5.1-1.4
				c-3-0.7-5.5-1.4-7.3-2.2c-1.9-0.7-3.5-1.8-4.8-3.4c-1.3-1.5-2-3.6-2-6.2c0-2.2,0.6-4.2,1.8-6c1.2-1.8,3-3.2,5.4-4.3
				c2.4-1.1,5.3-1.6,8.8-1.6c2.4,0,4.8,0.3,7.1,0.9c2.3,0.6,4.4,1.5,6.1,2.6l-2.3,5.7c-1.7-1-3.5-1.8-5.4-2.3
				c-1.9-0.5-3.7-0.8-5.5-0.8c-2.9,0-5.1,0.5-6.5,1.5c-1.4,1-2.1,2.3-2.1,3.9c0,1.1,0.4,2.1,1.2,2.8c0.8,0.7,1.8,1.3,3.1,1.7
				c1.2,0.4,2.9,0.9,5.1,1.4c2.9,0.7,5.4,1.4,7.2,2.1c1.9,0.7,3.5,1.9,4.8,3.4c1.3,1.5,2,3.5,2,6.1c0,2.2-0.6,4.2-1.8,5.9
				c-1.2,1.8-3,3.2-5.4,4.2c-2.4,1.1-5.4,1.6-8.8,1.6C204.3,83,201.4,82.5,198.5,81.7z"/>
			<path class="st0" d="M248.2,80.8c-0.8,0.7-1.8,1.2-3,1.5c-1.2,0.3-2.4,0.5-3.8,0.5c-3.3,0-5.9-0.9-7.7-2.6
				c-1.8-1.7-2.7-4.3-2.7-7.6V58h-5v-5.7h5v-6.9h7.1v6.9h8.1V58h-8.1v14.4c0,1.5,0.4,2.6,1.1,3.4c0.7,0.8,1.8,1.2,3.1,1.2
				c1.6,0,2.9-0.4,4-1.2L248.2,80.8z"/>
			<path class="st0" d="M271.5,51.8v6.7c-0.6-0.1-1.2-0.2-1.6-0.2c-2.8,0-4.9,0.8-6.5,2.4c-1.5,1.6-2.3,3.9-2.3,6.9v14.7h-7.1V52.2
				h6.7v4.4C262.8,53.4,266.4,51.8,271.5,51.8z"/>
			<path class="st0" d="M305.6,69.5h-23.7c0.4,2.2,1.5,4,3.3,5.3c1.8,1.3,3.9,2,6.5,2c3.3,0,6.1-1.1,8.2-3.3l3.8,4.4
				c-1.4,1.6-3.1,2.9-5.2,3.7c-2.1,0.8-4.4,1.2-7,1.2c-3.3,0-6.2-0.7-8.8-2c-2.5-1.3-4.5-3.2-5.9-5.5c-1.4-2.4-2.1-5-2.1-8
				c0-2.9,0.7-5.6,2-8c1.3-2.4,3.2-4.2,5.6-5.5c2.4-1.3,5.1-2,8-2c2.9,0,5.6,0.7,7.9,2c2.3,1.3,4.1,3.1,5.4,5.5c1.3,2.4,2,5.1,2,8.2
				C305.7,67.9,305.7,68.6,305.6,69.5z M284.7,59.5c-1.6,1.3-2.5,3.1-2.9,5.4H299c-0.3-2.2-1.2-4-2.8-5.3c-1.5-1.4-3.5-2-5.8-2
				C288.1,57.5,286.2,58.2,284.7,59.5z"/>
			<path class="st0" d="M333.4,55c2.4,2.1,3.5,5.4,3.5,9.7v17.7h-6.7v-3.7c-0.9,1.3-2.1,2.3-3.7,3c-1.6,0.7-3.5,1-5.8,1
				c-2.3,0-4.2-0.4-5.9-1.2c-1.7-0.8-3-1.8-3.9-3.2c-0.9-1.4-1.4-2.9-1.4-4.7c0-2.7,1-4.9,3-6.5c2-1.6,5.2-2.5,9.5-2.5h7.8v-0.5
				c0-2.1-0.6-3.7-1.9-4.9c-1.3-1.1-3.1-1.7-5.6-1.7c-1.7,0-3.4,0.3-5,0.8c-1.6,0.5-3,1.3-4.2,2.2l-2.8-5.2c1.6-1.2,3.5-2.1,5.7-2.8
				c2.2-0.6,4.6-1,7.1-1C327.7,51.8,331.1,52.9,333.4,55z M327,76.4c1.4-0.8,2.4-2,2.9-3.5v-3.5h-7.3c-4.1,0-6.1,1.3-6.1,4
				c0,1.3,0.5,2.3,1.5,3.1s2.4,1.1,4.2,1.1C324,77.6,325.6,77.2,327,76.4z"/>
			<path class="st0" d="M393.3,55.1c2.2,2.2,3.3,5.5,3.3,9.9v17.3h-7.1V66c0-2.6-0.6-4.6-1.8-6c-1.2-1.3-2.9-2-5-2
				c-2.4,0-4.3,0.8-5.7,2.4c-1.4,1.6-2.2,3.8-2.2,6.7v15.3h-7.1V66c0-2.6-0.6-4.6-1.8-6c-1.2-1.3-2.9-2-5-2c-2.4,0-4.3,0.8-5.7,2.3
				c-1.4,1.5-2.1,3.8-2.1,6.7v15.3H346V52.2h6.7V56c1.1-1.4,2.5-2.4,4.2-3.1c1.7-0.7,3.6-1.1,5.7-1.1c2.3,0,4.3,0.4,6,1.3
				c1.8,0.8,3.1,2.1,4.2,3.8c1.2-1.6,2.9-2.8,4.8-3.7c2-0.9,4.1-1.3,6.5-1.3C388,51.8,391,52.9,393.3,55.1z"/>
		</g>
	</g>
</g>
</svg>
