<?xml version="1.0" encoding="UTF-8" standalone="no" ?>
<!DOCTYPE svg PUBLIC "-//W3C//DTD SVG 1.1//EN" "http://www.w3.org/Graphics/SVG/1.1/DTD/svg11.dtd">
<svg xmlns="http://www.w3.org/2000/svg" xmlns:xlink="http://www.w3.org/1999/xlink" version="1.1" width="70" height="94" viewBox="0 0 70 94" xml:space="preserve">
<desc>Created with Fabric.js 3.6.3</desc>
<defs>
</defs>
<g transform="matrix(1 0 0 1 35.19 47.2)"  >
<g style=""   >
		<g transform="matrix(1 0 0 1 -0.04 -32.65)"  >
<path style="stroke: none; stroke-width: 1; stroke-dasharray: none; stroke-linecap: butt; stroke-dashoffset: 0; stroke-linejoin: miter; stroke-miterlimit: 4; fill: rgb(255,255,255); fill-rule: nonzero; opacity: 1;"  transform=" translate(-38.67, -18.35)" d="M 68.4 23.7 c -0.7 0 -1.4 0.1 -2 0.3 c -1.1 -4.8 -5.4 -8.3 -10.5 -8.3 c -0.2 0 -0.3 0 -0.5 0 c -3.4 -5.6 -9.6 -9.4 -16.6 -9.4 c -6.4 0 -12.1 3.1 -15.7 7.9 c -0.4 0.5 -0.7 1 -1 1.5 c -0.2 0 -0.3 0 -0.5 0 c -5.1 0 -9.4 3.6 -10.5 8.3 c -0.6 -0.2 -1.3 -0.3 -2 -0.3 c -0.2 0 -0.5 0 -0.7 0 c -4.1 0.4 -3.7 6.7 0.5 6.7 h 2.7 h 4.2 h 3.9 h 11.8 h 14.3 h 11.8 h 3.9 h 4.2 h 2.7 c 4.2 0 4.7 -6.3 0.5 -6.7 C 68.9 23.7 68.7 23.7 68.4 23.7 z" stroke-linecap="round" />
</g>
		<g transform="matrix(1 0 0 1 0.08 14.2)"  >
<path style="stroke: none; stroke-width: 1; stroke-dasharray: none; stroke-linecap: butt; stroke-dashoffset: 0; stroke-linejoin: miter; stroke-miterlimit: 4; fill: rgb(255,255,255); fill-rule: nonzero; opacity: 1;"  transform=" translate(-38.8, -65.2)" d="M 38.8 52.7 c -6.9 0 -12.5 5.6 -12.5 12.5 c 0 6.9 5.6 12.5 12.5 12.5 s 12.5 -5.6 12.5 -12.5 C 51.3 58.3 45.7 52.7 38.8 52.7 z M 44.2 66.5 l -8 4.6 c -1 0.6 -2.2 -0.1 -2.2 -1.3 v -9.2 c 0 -1.1 1.2 -1.9 2.2 -1.3 l 8 4.6 C 45.2 64.5 45.2 65.9 44.2 66.5 z" stroke-linecap="round" />
</g>
		<g transform="matrix(1 0 0 1 -22.51 9.4)"  >
<path style="stroke: none; stroke-width: 1; stroke-dasharray: none; stroke-linecap: butt; stroke-dashoffset: 0; stroke-linejoin: miter; stroke-miterlimit: 4; fill: rgb(199,8,28); fill-rule: nonzero; opacity: 1;"  transform=" translate(-16.2, -60.4)" d="M 25 75.8 L 9.9 60.7 L 7.4 45 l 14.9 14.9 c -0.5 1.7 -0.9 3.5 -0.9 5.4 C 21.4 69.2 22.7 72.8 25 75.8 z" stroke-linecap="round" />
</g>
		<g transform="matrix(1 0 0 1 19.68 27.25)"  >
<path style="stroke: none; stroke-width: 1; stroke-dasharray: none; stroke-linecap: butt; stroke-dashoffset: 0; stroke-linejoin: miter; stroke-miterlimit: 4; fill: rgb(255,8,28); fill-rule: nonzero; opacity: 1;"  transform=" translate(-58.4, -78.25)" d="M 65.1 77.1 l -1.8 11.4 L 51.7 76.9 c 2.2 -2.4 3.7 -5.5 4.3 -8.9 L 65.1 77.1 z" stroke-linecap="round" />
</g>
		<g transform="matrix(1 0 0 1 4.38 36.4)"  >
<path style="stroke: none; stroke-width: 1; stroke-dasharray: none; stroke-linecap: butt; stroke-dashoffset: 0; stroke-linejoin: miter; stroke-miterlimit: 4; fill: rgb(199,8,28); fill-rule: nonzero; opacity: 1;"  transform=" translate(-43.1, -87.4)" d="M 57.9 95.6 c -0.4 0.1 -0.9 0.1 -1.3 0.1 H 44.9 L 28.3 79.1 c 2.9 2.2 6.6 3.6 10.6 3.6 c 1.9 0 3.7 -0.3 5.4 -0.9 L 57.9 95.6 z" stroke-linecap="round" />
</g>
		<g transform="matrix(1 0 0 1 -16.42 34.6)"  >
<path style="stroke: none; stroke-width: 1; stroke-dasharray: none; stroke-linecap: butt; stroke-dashoffset: 0; stroke-linejoin: miter; stroke-miterlimit: 4; fill: rgb(255,8,28); fill-rule: nonzero; opacity: 1;"  transform=" translate(-22.3, -85.6)" d="M 32.4 95.7 H 21 c -3.2 0 -5.9 -2.3 -6.4 -5.5 l -2.4 -14.7 L 32.4 95.7 z" stroke-linecap="round" />
</g>
		<g transform="matrix(1 0 0 1 13.23 -0.4)"  >
<polygon style="stroke: none; stroke-width: 1; stroke-dasharray: none; stroke-linecap: butt; stroke-dashoffset: 0; stroke-linejoin: miter; stroke-miterlimit: 4; fill: rgb(199,8,28); fill-rule: nonzero; opacity: 1;"  points="-16.75,-15.8 14.85,15.8 16.75,4.4 -3.55,-15.8 " />
</g>
		<g transform="matrix(1 0 0 1 -15.96 -7.45)"  >
<path style="stroke: none; stroke-width: 1; stroke-dasharray: none; stroke-linecap: butt; stroke-dashoffset: 0; stroke-linejoin: miter; stroke-miterlimit: 4; fill: rgb(255,8,28); fill-rule: nonzero; opacity: 1;"  transform=" translate(-22.75, -43.55)" d="M 14.9 34.8 h -1.6 H 9.5 l 2.7 2.6 l 14.9 14.9 c 2.4 -2.2 5.5 -3.7 8.9 -4.3 L 22.8 34.8 H 14.9 z" stroke-linecap="round" />
</g>
		<g transform="matrix(1 0 0 1 27.69 -11.4)"  >
<path style="stroke: none; stroke-width: 1; stroke-dasharray: none; stroke-linecap: butt; stroke-dashoffset: 0; stroke-linejoin: miter; stroke-miterlimit: 4; fill: rgb(255,8,28); fill-rule: nonzero; opacity: 1;"  transform=" translate(-66.4, -39.6)" d="M 71.9 34.8 h -7.6 h -2.8 h -0.6 l 9.6 9.6 l 0.3 -2 c 0 0 0 0 0 0 L 71.9 34.8 z" stroke-linecap="round" />
</g>
</g>
</g>
</svg>